# xmcd
#
# Track frame offsets:
#	182
#	10297
#	18267
#	27265
#	35485
#	45200
#	53927
#	64050
#	74795
#	83172
#	92742
#	103432
#	113277
#	122067
#	131057
#	141262
#	151437
#	165825
#	174510
#	183277
#
# Disc length: 2585 seconds
#
# Revision: 2
# Processed by: cddbd v1.5PL3 Copyright (c) Steve Scherf et al.
# Submitted via: audiograbber 1.83.01
#
DISCID=080a1714
DTITLE=Eddie Cochran - The EP Collection
DYEAR=1900
DGENRE=Rock'n Roll
TTITLE0=Skinny Jim
TTITLE1=20 Flight Rock 
TTITLE2=Sittin' In The Balcony 
TTITLE3=Blue Suede Shoes
TTITLE4=Pink-Peg Slacks
TTITLE5=Mean When I'm Mad 
TTITLE6=Stocking and shoes
TTITLE7=Jeanie Jeanie Jeanie
TTITLE8=Pretty Girl
TTITLE9=Teresa
TTITLE10=Nervous Breakdown
TTITLE11=Sweetie Pie
TTITLE12=Come on Everybody
TTITLE13=Summertime Blues
TTITLE14=I remember
TTITLE15=Rock'n Roll Blues
TTITLE16=Milk Cow Blues
TTITLE17=Little Angel
TTITLE18=Cherished Memories
TTITLE19=Three Steps To Heaven
EXTD=Already in db but only shows 2 first songs then it's all missed up
EXTT0=
EXTT1=
EXTT2=
EXTT3=
EXTT4=
EXTT5=
EXTT6=
EXTT7=
EXTT8=
EXTT9=
EXTT10=
EXTT11=
EXTT12=
EXTT13=
EXTT14=
EXTT15=
EXTT16=
EXTT17=
EXTT18=
EXTT19=
PLAYORDER=
